<svg xmlns="http://www.w3.org/2000/svg" version="1.1" xmlns:xlink="http://www.w3.org/1999/xlink" xmlns:svgjs="http://svgjs.dev/svgjs" width="1000" height="1000" viewBox="0 0 1000 1000"><g transform="matrix(1,0,0,1,-0.14221556886212738,-0.14221556886229791)"><svg viewBox="0 0 334 334" data-background-color="#ffffff" preserveAspectRatio="xMidYMid meet" height="1000" width="1000" xmlns="http://www.w3.org/2000/svg" xmlns:xlink="http://www.w3.org/1999/xlink"><g id="tight-bounds" transform="matrix(1,0,0,1,0.04749999999998522,0.04750000000001364)"><svg viewBox="0 0 333.90454557049503 333.90454557049503" height="333.90454557049503" width="333.90454557049503"><g><svg></svg></g><g><svg viewBox="0 0 333.90454557049503 333.90454557049503" height="333.90454557049503" width="333.90454557049503"><g><path d="M0 166.952c0-92.205 74.747-166.952 166.952-166.952 92.205 0 166.952 74.747 166.953 166.952 0 92.205-74.747 166.952-166.953 166.953-92.205 0-166.952-74.747-166.952-166.953zM166.952 316.63c82.665 0 149.677-67.013 149.678-149.678 0-82.665-67.013-149.677-149.678-149.677-82.665 0-149.677 67.013-149.677 149.677 0 82.665 67.013 149.677 149.677 149.678z" data-fill-palette-color="tertiary" fill="#000000" stroke="transparent"></path><ellipse rx="160.27418187383762" ry="160.27418187383762" cx="166.95227278524752" cy="166.95227278524752" fill="#000000" stroke="transparent" stroke-width="0" fill-opacity="1" data-fill-palette-color="tertiary"></ellipse></g><g transform="matrix(1,0,0,1,76.37249557640607,71.17305217166896)"><svg viewBox="0 0 181.1595544176829 191.55844122715712" height="191.55844122715712" width="181.1595544176829"><g><svg viewBox="0 0 181.1595544176829 191.55844122715712" height="191.55844122715712" width="181.1595544176829"><g><svg viewBox="0 0 181.1595544176829 191.55844122715712" height="191.55844122715712" width="181.1595544176829"><g><svg viewBox="0 0 181.1595544176829 191.55844122715712" height="191.55844122715712" width="181.1595544176829"><g id="textblocktransform"><svg viewBox="0 0 181.1595544176829 191.55844122715712" height="191.55844122715712" width="181.1595544176829" id="textblock"><g><svg viewBox="0 0 181.1595544176829 191.55844122715712" height="191.55844122715712" width="181.1595544176829"><g transform="matrix(1,0,0,1,0,0)"><svg width="181.1595544176829" viewBox="2.75 -35 33.099998474121094 35" height="191.55844122715712" data-palette-color="#ffffff"><path d="M13.9 0L4.1 0Q3.55 0 3.15-0.38 2.75-0.75 2.75-1.35L2.75-1.35 2.75-33.65Q2.75-34.2 3.15-34.6 3.55-35 4.1-35L4.1-35 13.9-35Q14.45-35 14.85-34.6 15.25-34.2 15.25-33.65L15.25-33.65 15.25-23.15 23.35-23.15 23.35-33.65Q23.35-34.2 23.75-34.6 24.15-35 24.7-35L24.7-35 34.5-35Q35.05-35 35.45-34.6 35.85-34.2 35.85-33.65L35.85-33.65 35.85-1.35Q35.85-0.8 35.45-0.4 35.05 0 34.5 0L34.5 0 24.7 0Q24.15 0 23.75-0.4 23.35-0.8 23.35-1.35L23.35-1.35 23.35-12.15 15.25-12.15 15.25-1.35Q15.25-0.8 14.85-0.4 14.45 0 13.9 0L13.9 0Z" opacity="1" transform="matrix(1,0,0,1,0,0)" fill="#ffffff" class="wordmark-text-0" data-fill-palette-color="quaternary" id="text-0"></path></svg></g></svg></g></svg></g></svg></g><g></g></svg></g></svg></g></svg></g></svg></g><defs></defs></svg><rect width="333.90454557049503" height="333.90454557049503" fill="none" stroke="none" visibility="hidden"></rect></g></svg></g></svg>